<svg xmlns="http://www.w3.org/2000/svg" width="71.459" height="13.86" viewBox="0 0 71.459 13.86"><g transform="translate(-303.14 -376.14)"><path d="M12.107-4.24q0,.579-.05,1.182H3.605A5.166,5.166,0,0,0,4.712.162,3.209,3.209,0,0,0,7.177,1.193,5.385,5.385,0,0,0,8.938.917a7.1,7.1,0,0,0,1.685-.88L11.629,1.42A7.327,7.327,0,0,1,7,3.08,5.368,5.368,0,0,1,2.687,1.269,7.424,7.424,0,0,1,1.14-3.712a9.435,9.435,0,0,1,.667-3.66,5.742,5.742,0,0,1,1.912-2.5,4.848,4.848,0,0,1,2.93-.906A4.914,4.914,0,0,1,10.7-9.044,7.421,7.421,0,0,1,12.107-4.24ZM9.818-4.919a4.9,4.9,0,0,0-.78-2.993A2.747,2.747,0,0,0,6.7-8.944q-2.842,0-3.094,4.176H9.818Zm15.621-5.559-4.5,13.256H18.144L13.566-10.478h2.515L19.553.715,23-10.478ZM37.991-4.24q0,.579-.05,1.182H29.489A5.166,5.166,0,0,0,30.6.162a3.209,3.209,0,0,0,2.465,1.031A5.385,5.385,0,0,0,34.822.917a7.1,7.1,0,0,0,1.685-.88L37.513,1.42a7.327,7.327,0,0,1-4.628,1.66,5.368,5.368,0,0,1-4.314-1.811,7.424,7.424,0,0,1-1.547-4.981,9.435,9.435,0,0,1,.667-3.66,5.743,5.743,0,0,1,1.912-2.5,4.848,4.848,0,0,1,2.93-.906,4.914,4.914,0,0,1,4.05,1.736A7.421,7.421,0,0,1,37.991-4.24ZM35.7-4.919a4.9,4.9,0,0,0-.78-2.993,2.747,2.747,0,0,0-2.339-1.031q-2.842,0-3.094,4.176H35.7ZM47.927-10.78A3.7,3.7,0,0,1,50.757-9.7,4.156,4.156,0,0,1,51.775-6.73V2.778H49.461V-6.4a2.939,2.939,0,0,0-.528-1.987,2.007,2.007,0,0,0-1.56-.579,3.018,3.018,0,0,0-1.861.6A6.281,6.281,0,0,0,44-6.63V2.778H41.689V-10.478h1.987l.2,1.962a5.239,5.239,0,0,1,1.748-1.66A4.515,4.515,0,0,1,47.927-10.78Z" transform="translate(302 386.92)" fill="#f1c652"/><path d="M6.954-10.54v1.192L2.271-2.877H7.005L6.818-1.565H.5V-2.74L5.166-9.212H.892V-10.54Z" transform="translate(367.593 391.565)" fill="#f1c652"/><path d="M10.78-13.86l-.32,2.52H7.04V0H3.76V-11.34H.18v-2.52Z" transform="translate(357 390)" fill="#f19a17"/></g></svg>